<svg width="40" height="40" viewBox="0 0 40 40" fill="none" xmlns="http://www.w3.org/2000/svg">
<path d="M20 36.6667C29.205 36.6667 36.6667 29.205 36.6667 20C36.6667 10.795 29.205 3.33333 20 3.33333C10.795 3.33333 3.33334 10.795 3.33334 20C3.33334 29.205 10.795 36.6667 20 36.6667Z" stroke="#3A83A1" stroke-width="2.5" stroke-linecap="round" stroke-linejoin="round"/>
<path d="M25 14.1667C23.8583 13.025 21.8483 12.2317 20 12.1817M20 12.1817C17.8 12.1217 15.8333 13.1167 15.8333 15.8333C15.8333 20.8333 25 18.3333 25 23.3333C25 26.185 22.56 27.41 20 27.3183M20 12.1817V9.16666M15 25C16.0733 26.4333 18.0717 27.25 20 27.3183M20 27.3183V30.8333" stroke="#3A83A1" stroke-width="2.5" stroke-linecap="round" stroke-linejoin="round"/>
</svg>
