<svg width="40" height="40" viewBox="0 0 40 40" fill="none" xmlns="http://www.w3.org/2000/svg">
<path d="M1.25 5V31.25H5.195C5.7525 33.3988 7.685 35 10 35C12.315 35 14.2475 33.3988 14.805 31.25H25.195C25.7525 33.3988 27.685 35 30 35C32.315 35 34.2475 33.3988 34.805 31.25H38.75V18.2425L38.3988 17.8512L30.8988 10.3513L30.5075 10H23.75V5H1.25ZM3.75 7.5H21.25V28.75H14.805C14.2475 26.6012 12.315 25 10 25C7.685 25 5.7525 26.6012 5.195 28.75H3.75V7.5ZM23.75 12.5H29.4538L36.25 19.2975V28.75H34.805C34.2475 26.6012 32.315 25 30 25C27.685 25 25.7525 26.6012 25.195 28.75H23.75V12.5ZM10 27.5C11.3962 27.5 12.5 28.6038 12.5 30C12.5 31.3962 11.3962 32.5 10 32.5C8.60375 32.5 7.5 31.3962 7.5 30C7.5 28.6038 8.60375 27.5 10 27.5ZM30 27.5C31.3962 27.5 32.5 28.6038 32.5 30C32.5 31.3962 31.3962 32.5 30 32.5C28.6038 32.5 27.5 31.3962 27.5 30C27.5 28.6038 28.6038 27.5 30 27.5Z" fill="#3A83A1"/>
</svg>
